<svg width="1111" height="777" viewBox="0 0 1111 777" fill="none" xmlns="http://www.w3.org/2000/svg">
<rect width="1111" height="777" fill="#E5E5E5"/>
<g clip-path="url(#clip0)">
<rect width="1111" height="777" fill="white"/>
<path d="M329.5 844.5L467.5 777.5C770.563 758.643 454.5 527.099 293.5 624.299C132.5 721.5 31.0768 578.319 -135 555.5H-143.5C-140.667 633.333 -132.7 790.6 -123.5 797C-114.3 803.4 182.333 831.333 329.5 844.5Z" fill="#2F80ED"/>
<path d="M975 547.5C1224.5 324 477.5 442.5 628.5 224C779.5 5.5 730.504 -58.3346 641.5 -163.5H663L779.5 -39L1147.5 -32L1141 588.5C1002.5 649.333 775.4 726.3 975 547.5Z" fill="#2F80ED"/>
<path d="M88.1562 110.875L98 137.031L107.82 110.875H115.484V145H109.578V133.75L110.164 118.703L100.086 145H95.8438L85.7891 118.727L86.375 133.75V145H80.4688V110.875H88.1562ZM140.192 127.047L148.044 110.875H154.606L143.169 132.438V145H137.216V132.438L125.755 110.875H132.341L140.192 127.047ZM204.327 130.539H190.592V145H184.662V110.875H206.342V115.656H190.592V125.805H204.327V130.539ZM224.511 145H218.605V110.875H224.511V145ZM251.539 131.852H244.93V145H239V110.875H251C254.938 110.875 257.977 111.758 260.117 113.523C262.258 115.289 263.328 117.844 263.328 121.188C263.328 123.469 262.773 125.383 261.664 126.93C260.57 128.461 259.039 129.641 257.07 130.469L264.734 144.695V145H258.383L251.539 131.852ZM244.93 127.094H251.023C253.023 127.094 254.586 126.594 255.711 125.594C256.836 124.578 257.398 123.195 257.398 121.445C257.398 119.617 256.875 118.203 255.828 117.203C254.797 116.203 253.25 115.688 251.188 115.656H244.93V127.094ZM293.989 136.211C293.989 134.711 293.458 133.555 292.395 132.742C291.348 131.93 289.45 131.109 286.7 130.281C283.95 129.453 281.762 128.531 280.137 127.516C277.028 125.562 275.473 123.016 275.473 119.875C275.473 117.125 276.591 114.859 278.825 113.078C281.075 111.297 283.989 110.406 287.567 110.406C289.942 110.406 292.059 110.844 293.919 111.719C295.778 112.594 297.239 113.844 298.302 115.469C299.364 117.078 299.895 118.867 299.895 120.836H293.989C293.989 119.055 293.427 117.664 292.302 116.664C291.192 115.648 289.598 115.141 287.52 115.141C285.583 115.141 284.075 115.555 282.997 116.383C281.934 117.211 281.403 118.367 281.403 119.852C281.403 121.102 281.981 122.148 283.137 122.992C284.294 123.82 286.2 124.633 288.856 125.43C291.512 126.211 293.645 127.109 295.255 128.125C296.864 129.125 298.044 130.281 298.794 131.594C299.544 132.891 299.919 134.414 299.919 136.164C299.919 139.008 298.825 141.273 296.637 142.961C294.466 144.633 291.512 145.469 287.778 145.469C285.309 145.469 283.036 145.016 280.958 144.109C278.895 143.188 277.286 141.922 276.13 140.312C274.989 138.703 274.419 136.828 274.419 134.688H280.348C280.348 136.625 280.989 138.125 282.27 139.188C283.552 140.25 285.387 140.781 287.778 140.781C289.841 140.781 291.387 140.367 292.419 139.539C293.466 138.695 293.989 137.586 293.989 136.211ZM336.978 115.656H326.337V145H320.455V115.656H309.908V110.875H336.978V115.656ZM386.089 130.539H372.355V145H366.425V110.875H388.105V115.656H372.355V125.805H386.089V130.539ZM412.555 131.852H405.945V145H400.016V110.875H412.016C415.953 110.875 418.992 111.758 421.133 113.523C423.273 115.289 424.344 117.844 424.344 121.188C424.344 123.469 423.789 125.383 422.68 126.93C421.586 128.461 420.055 129.641 418.086 130.469L425.75 144.695V145H419.398L412.555 131.852ZM405.945 127.094H412.039C414.039 127.094 415.602 126.594 416.727 125.594C417.852 124.578 418.414 123.195 418.414 121.445C418.414 119.617 417.891 118.203 416.844 117.203C415.812 116.203 414.266 115.688 412.203 115.656H405.945V127.094ZM464.403 128.828C464.403 132.172 463.825 135.109 462.669 137.641C461.513 140.156 459.856 142.094 457.7 143.453C455.559 144.797 453.091 145.469 450.294 145.469C447.528 145.469 445.059 144.797 442.888 143.453C440.731 142.094 439.059 140.164 437.872 137.664C436.7 135.164 436.106 132.281 436.091 129.016V127.094C436.091 123.766 436.677 120.828 437.848 118.281C439.036 115.734 440.7 113.789 442.841 112.445C444.997 111.086 447.466 110.406 450.247 110.406C453.028 110.406 455.489 111.078 457.63 112.422C459.786 113.75 461.45 115.672 462.622 118.188C463.794 120.688 464.388 123.602 464.403 126.93V128.828ZM458.473 127.047C458.473 123.266 457.755 120.367 456.317 118.352C454.895 116.336 452.872 115.328 450.247 115.328C447.684 115.328 445.677 116.336 444.223 118.352C442.786 120.352 442.052 123.188 442.02 126.859V128.828C442.02 132.578 442.747 135.477 444.2 137.523C445.669 139.57 447.7 140.594 450.294 140.594C452.919 140.594 454.934 139.594 456.341 137.594C457.763 135.594 458.473 132.672 458.473 128.828V127.047ZM504.58 145H498.65L483.439 120.789V145H477.509V110.875H483.439L498.697 135.18V110.875H504.58V145ZM542.741 115.656H532.1V145H526.217V115.656H515.67V110.875H542.741V115.656ZM100.414 185.766H86.3984V196.266H102.781V201H80.4688V166.875H102.617V171.656H86.3984V181.078H100.414V185.766ZM141.88 201H135.95L120.739 176.789V201H114.809V166.875H120.739L135.997 191.18V166.875H141.88V201ZM156.088 201V166.875H166.166C169.181 166.875 171.853 167.547 174.181 168.891C176.525 170.234 178.338 172.141 179.619 174.609C180.9 177.078 181.541 179.906 181.541 183.094V184.805C181.541 188.039 180.892 190.883 179.595 193.336C178.314 195.789 176.478 197.68 174.088 199.008C171.713 200.336 168.986 201 165.908 201H156.088ZM162.017 171.656V196.266H165.884C168.994 196.266 171.377 195.297 173.033 193.359C174.705 191.406 175.556 188.609 175.588 184.969V183.07C175.588 179.367 174.783 176.539 173.173 174.586C171.564 172.633 169.228 171.656 166.166 171.656H162.017ZM219.73 188.32V201H213.8V166.875H226.855C230.667 166.875 233.691 167.867 235.925 169.852C238.175 171.836 239.3 174.461 239.3 177.727C239.3 181.07 238.198 183.672 235.995 185.531C233.808 187.391 230.738 188.32 226.784 188.32H219.73ZM219.73 183.562H226.855C228.964 183.562 230.573 183.07 231.683 182.086C232.792 181.086 233.347 179.648 233.347 177.773C233.347 175.93 232.784 174.461 231.659 173.367C230.534 172.258 228.988 171.688 227.019 171.656H219.73V183.562ZM264.242 187.852H257.633V201H251.703V166.875H263.703C267.641 166.875 270.68 167.758 272.82 169.523C274.961 171.289 276.031 173.844 276.031 177.188C276.031 179.469 275.477 181.383 274.367 182.93C273.273 184.461 271.742 185.641 269.773 186.469L277.438 200.695V201H271.086L264.242 187.852ZM257.633 183.094H263.727C265.727 183.094 267.289 182.594 268.414 181.594C269.539 180.578 270.102 179.195 270.102 177.445C270.102 175.617 269.578 174.203 268.531 173.203C267.5 172.203 265.953 171.688 263.891 171.656H257.633V183.094ZM316.091 184.828C316.091 188.172 315.512 191.109 314.356 193.641C313.2 196.156 311.544 198.094 309.387 199.453C307.247 200.797 304.778 201.469 301.981 201.469C299.216 201.469 296.747 200.797 294.575 199.453C292.419 198.094 290.747 196.164 289.559 193.664C288.387 191.164 287.794 188.281 287.778 185.016V183.094C287.778 179.766 288.364 176.828 289.536 174.281C290.723 171.734 292.387 169.789 294.528 168.445C296.684 167.086 299.153 166.406 301.934 166.406C304.716 166.406 307.177 167.078 309.317 168.422C311.473 169.75 313.137 171.672 314.309 174.188C315.481 176.688 316.075 179.602 316.091 182.93V184.828ZM310.161 183.047C310.161 179.266 309.442 176.367 308.005 174.352C306.583 172.336 304.559 171.328 301.934 171.328C299.372 171.328 297.364 172.336 295.911 174.352C294.473 176.352 293.739 179.188 293.708 182.859V184.828C293.708 188.578 294.434 191.477 295.887 193.523C297.356 195.57 299.387 196.594 301.981 196.594C304.606 196.594 306.622 195.594 308.028 193.594C309.45 191.594 310.161 188.672 310.161 184.828V183.047ZM343.166 166.875H349.072V190.805C349.072 194.07 348.048 196.664 346.002 198.586C343.97 200.508 341.283 201.469 337.939 201.469C334.377 201.469 331.627 200.57 329.689 198.773C327.752 196.977 326.783 194.477 326.783 191.273H332.689C332.689 193.086 333.134 194.453 334.025 195.375C334.931 196.281 336.236 196.734 337.939 196.734C339.533 196.734 340.798 196.211 341.736 195.164C342.689 194.102 343.166 192.641 343.166 190.781V166.875ZM383.014 185.766H368.998V196.266H385.381V201H363.069V166.875H385.217V171.656H368.998V181.078H383.014V185.766ZM423.448 189.891C423.105 193.531 421.761 196.375 419.417 198.422C417.073 200.453 413.956 201.469 410.066 201.469C407.347 201.469 404.948 200.828 402.87 199.547C400.808 198.25 399.214 196.414 398.089 194.039C396.964 191.664 396.378 188.906 396.331 185.766V182.578C396.331 179.359 396.902 176.523 398.042 174.07C399.183 171.617 400.816 169.727 402.941 168.398C405.081 167.07 407.55 166.406 410.347 166.406C414.112 166.406 417.144 167.43 419.441 169.477C421.737 171.523 423.073 174.414 423.448 178.148H417.542C417.261 175.695 416.542 173.93 415.386 172.852C414.245 171.758 412.566 171.211 410.347 171.211C407.769 171.211 405.784 172.156 404.394 174.047C403.019 175.922 402.316 178.68 402.284 182.32V185.344C402.284 189.031 402.941 191.844 404.253 193.781C405.581 195.719 407.519 196.688 410.066 196.688C412.394 196.688 414.144 196.164 415.316 195.117C416.487 194.07 417.23 192.328 417.542 189.891H423.448ZM459.922 171.656H449.281V201H443.398V171.656H432.852V166.875H459.922V171.656Z" fill="black"/>
<path d="M66.2656 377.703C67.1953 376.625 68.3711 376.086 69.793 376.086C72.4961 376.086 73.8672 377.629 73.9062 380.715V389H71.0586V380.82C71.0586 379.945 70.8672 379.328 70.4844 378.969C70.1094 378.602 69.5547 378.418 68.8203 378.418C67.6797 378.418 66.8281 378.926 66.2656 379.941V389H63.418V371H66.2656V377.703ZM83.9633 373.238V376.32H86.2016V378.43H83.9633V385.508C83.9633 385.992 84.057 386.344 84.2445 386.562C84.4398 386.773 84.7836 386.879 85.2758 386.879C85.6039 386.879 85.9359 386.84 86.2719 386.762V388.965C85.6234 389.145 84.9984 389.234 84.3969 389.234C82.2094 389.234 81.1156 388.027 81.1156 385.613V378.43H79.0297V376.32H81.1156V373.238H83.9633ZM94.6648 376.32L94.7469 377.645C95.6375 376.605 96.8563 376.086 98.4031 376.086C100.098 376.086 101.259 376.734 101.884 378.031C102.805 376.734 104.102 376.086 105.774 376.086C107.173 376.086 108.212 376.473 108.891 377.246C109.579 378.02 109.93 379.16 109.946 380.668V389H107.098V380.75C107.098 379.945 106.923 379.355 106.571 378.98C106.22 378.605 105.638 378.418 104.825 378.418C104.177 378.418 103.645 378.594 103.231 378.945C102.825 379.289 102.54 379.742 102.376 380.305L102.388 389H99.5398V380.656C99.5008 379.164 98.7391 378.418 97.2547 378.418C96.1141 378.418 95.3055 378.883 94.8289 379.812V389H91.9813V376.32H94.6648ZM119.499 389H116.652V371H119.499V389ZM68.668 414.961C69.3789 414.961 69.9688 414.754 70.4375 414.34C70.9062 413.926 71.1562 413.414 71.1875 412.805H73.8711C73.8398 413.594 73.5938 414.332 73.1328 415.02C72.6719 415.699 72.0469 416.238 71.2578 416.637C70.4688 417.035 69.6172 417.234 68.7031 417.234C66.9297 417.234 65.5234 416.66 64.4844 415.512C63.4453 414.363 62.9258 412.777 62.9258 410.754V410.461C62.9258 408.531 63.4414 406.988 64.4727 405.832C65.5039 404.668 66.9102 404.086 68.6914 404.086C70.1992 404.086 71.4258 404.527 72.3711 405.41C73.3242 406.285 73.8242 407.438 73.8711 408.867H71.1875C71.1562 408.141 70.9062 407.543 70.4375 407.074C69.9766 406.605 69.3867 406.371 68.668 406.371C67.7461 406.371 67.0352 406.707 66.5352 407.379C66.0352 408.043 65.7812 409.055 65.7734 410.414V410.871C65.7734 412.246 66.0195 413.273 66.5117 413.953C67.0117 414.625 67.7305 414.961 68.668 414.961ZM86.7289 413.555C86.7289 413.047 86.518 412.66 86.0961 412.395C85.682 412.129 84.9906 411.895 84.0219 411.691C83.0531 411.488 82.2445 411.23 81.5961 410.918C80.1742 410.23 79.4633 409.234 79.4633 407.93C79.4633 406.836 79.9242 405.922 80.8461 405.188C81.768 404.453 82.9398 404.086 84.3617 404.086C85.8773 404.086 87.1 404.461 88.0297 405.211C88.9672 405.961 89.4359 406.934 89.4359 408.129H86.5883C86.5883 407.582 86.3852 407.129 85.9789 406.77C85.5727 406.402 85.0336 406.219 84.3617 406.219C83.7367 406.219 83.225 406.363 82.8266 406.652C82.4359 406.941 82.2406 407.328 82.2406 407.812C82.2406 408.25 82.4242 408.59 82.7914 408.832C83.1586 409.074 83.9008 409.32 85.018 409.57C86.1352 409.812 87.0102 410.105 87.643 410.449C88.2836 410.785 88.7563 411.191 89.0609 411.668C89.3734 412.145 89.5297 412.723 89.5297 413.402C89.5297 414.543 89.057 415.469 88.1117 416.18C87.1664 416.883 85.9281 417.234 84.3969 417.234C83.3578 417.234 82.432 417.047 81.6195 416.672C80.807 416.297 80.1742 415.781 79.7211 415.125C79.268 414.469 79.0414 413.762 79.0414 413.004H81.807C81.8461 413.676 82.1 414.195 82.5688 414.562C83.0375 414.922 83.6586 415.102 84.432 415.102C85.182 415.102 85.7523 414.961 86.143 414.68C86.5336 414.391 86.7289 414.016 86.7289 413.555ZM102.727 413.555C102.727 413.047 102.516 412.66 102.095 412.395C101.68 412.129 100.989 411.895 100.02 411.691C99.0516 411.488 98.243 411.23 97.5945 410.918C96.1727 410.23 95.4617 409.234 95.4617 407.93C95.4617 406.836 95.9227 405.922 96.8445 405.188C97.7664 404.453 98.9383 404.086 100.36 404.086C101.876 404.086 103.098 404.461 104.028 405.211C104.966 405.961 105.434 406.934 105.434 408.129H102.587C102.587 407.582 102.384 407.129 101.977 406.77C101.571 406.402 101.032 406.219 100.36 406.219C99.7352 406.219 99.2234 406.363 98.825 406.652C98.4344 406.941 98.2391 407.328 98.2391 407.812C98.2391 408.25 98.4227 408.59 98.7898 408.832C99.157 409.074 99.8992 409.32 101.016 409.57C102.134 409.812 103.009 410.105 103.641 410.449C104.282 410.785 104.755 411.191 105.059 411.668C105.372 412.145 105.528 412.723 105.528 413.402C105.528 414.543 105.055 415.469 104.11 416.18C103.165 416.883 101.927 417.234 100.395 417.234C99.3563 417.234 98.4305 417.047 97.618 416.672C96.8055 416.297 96.1727 415.781 95.7195 415.125C95.2664 414.469 95.0398 413.762 95.0398 413.004H97.8055C97.8445 413.676 98.0984 414.195 98.5672 414.562C99.0359 414.922 99.657 415.102 100.43 415.102C101.18 415.102 101.751 414.961 102.141 414.68C102.532 414.391 102.727 414.016 102.727 413.555ZM66.4297 432.32V446.125C66.4297 447.422 66.1055 448.41 65.457 449.09C64.8164 449.777 63.875 450.121 62.6328 450.121C62.1094 450.121 61.6055 450.055 61.1211 449.922V447.672C61.418 447.742 61.7539 447.777 62.1289 447.777C63.0742 447.777 63.5586 447.262 63.582 446.23V432.32H66.4297ZM63.3359 429.027C63.3359 428.59 63.4727 428.227 63.7461 427.938C64.0273 427.648 64.4258 427.504 64.9414 427.504C65.457 427.504 65.8555 427.648 66.1367 427.938C66.418 428.227 66.5586 428.59 66.5586 429.027C66.5586 429.457 66.418 429.816 66.1367 430.105C65.8555 430.387 65.457 430.527 64.9414 430.527C64.4258 430.527 64.0273 430.387 63.7461 430.105C63.4727 429.816 63.3359 429.457 63.3359 429.027ZM80.6586 445C80.5336 444.758 80.4242 444.363 80.3305 443.816C79.4242 444.762 78.3148 445.234 77.0023 445.234C75.7289 445.234 74.6898 444.871 73.8852 444.145C73.0805 443.418 72.6781 442.52 72.6781 441.449C72.6781 440.098 73.1781 439.062 74.1781 438.344C75.1859 437.617 76.6234 437.254 78.4906 437.254H80.2367V436.422C80.2367 435.766 80.0531 435.242 79.6859 434.852C79.3188 434.453 78.7602 434.254 78.0102 434.254C77.3617 434.254 76.8305 434.418 76.4164 434.746C76.0023 435.066 75.7953 435.477 75.7953 435.977H72.9477C72.9477 435.281 73.1781 434.633 73.6391 434.031C74.1 433.422 74.725 432.945 75.5141 432.602C76.3109 432.258 77.1977 432.086 78.1742 432.086C79.6586 432.086 80.8422 432.461 81.725 433.211C82.6078 433.953 83.0609 435 83.0844 436.352V442.07C83.0844 443.211 83.2445 444.121 83.5648 444.801V445H80.6586ZM77.5297 442.949C78.0922 442.949 78.6195 442.812 79.1117 442.539C79.6117 442.266 79.9867 441.898 80.2367 441.438V439.047H78.7016C77.6469 439.047 76.8539 439.23 76.3227 439.598C75.7914 439.965 75.5258 440.484 75.5258 441.156C75.5258 441.703 75.7055 442.141 76.0648 442.469C76.432 442.789 76.9203 442.949 77.5297 442.949ZM93.95 441.391L96.6336 432.32H99.575L95.1805 445H92.7078L88.2781 432.32H91.2313L93.95 441.391ZM112.351 445C112.226 444.758 112.116 444.363 112.023 443.816C111.116 444.762 110.007 445.234 108.695 445.234C107.421 445.234 106.382 444.871 105.577 444.145C104.773 443.418 104.37 442.52 104.37 441.449C104.37 440.098 104.87 439.062 105.87 438.344C106.878 437.617 108.316 437.254 110.183 437.254H111.929V436.422C111.929 435.766 111.745 435.242 111.378 434.852C111.011 434.453 110.452 434.254 109.702 434.254C109.054 434.254 108.523 434.418 108.109 434.746C107.695 435.066 107.487 435.477 107.487 435.977H104.64C104.64 435.281 104.87 434.633 105.331 434.031C105.792 433.422 106.417 432.945 107.206 432.602C108.003 432.258 108.89 432.086 109.866 432.086C111.351 432.086 112.534 432.461 113.417 433.211C114.3 433.953 114.753 435 114.777 436.352V442.07C114.777 443.211 114.937 444.121 115.257 444.801V445H112.351ZM109.222 442.949C109.784 442.949 110.312 442.812 110.804 442.539C111.304 442.266 111.679 441.898 111.929 441.438V439.047H110.394C109.339 439.047 108.546 439.23 108.015 439.598C107.484 439.965 107.218 440.484 107.218 441.156C107.218 441.703 107.398 442.141 107.757 442.469C108.124 442.789 108.612 442.949 109.222 442.949ZM128.466 441.555C128.466 441.047 128.255 440.66 127.834 440.395C127.42 440.129 126.728 439.895 125.759 439.691C124.791 439.488 123.982 439.23 123.334 438.918C121.912 438.23 121.201 437.234 121.201 435.93C121.201 434.836 121.662 433.922 122.584 433.188C123.505 432.453 124.677 432.086 126.099 432.086C127.615 432.086 128.838 432.461 129.767 433.211C130.705 433.961 131.173 434.934 131.173 436.129H128.326C128.326 435.582 128.123 435.129 127.716 434.77C127.31 434.402 126.771 434.219 126.099 434.219C125.474 434.219 124.963 434.363 124.564 434.652C124.173 434.941 123.978 435.328 123.978 435.812C123.978 436.25 124.162 436.59 124.529 436.832C124.896 437.074 125.638 437.32 126.755 437.57C127.873 437.812 128.748 438.105 129.38 438.449C130.021 438.785 130.494 439.191 130.798 439.668C131.111 440.145 131.267 440.723 131.267 441.402C131.267 442.543 130.795 443.469 129.849 444.18C128.904 444.883 127.666 445.234 126.134 445.234C125.095 445.234 124.17 445.047 123.357 444.672C122.545 444.297 121.912 443.781 121.459 443.125C121.005 442.469 120.779 441.762 120.779 441.004H123.545C123.584 441.676 123.838 442.195 124.306 442.562C124.775 442.922 125.396 443.102 126.17 443.102C126.92 443.102 127.49 442.961 127.88 442.68C128.271 442.391 128.466 442.016 128.466 441.555ZM142.566 442.961C143.277 442.961 143.867 442.754 144.336 442.34C144.805 441.926 145.055 441.414 145.086 440.805H147.77C147.738 441.594 147.492 442.332 147.031 443.02C146.57 443.699 145.945 444.238 145.156 444.637C144.367 445.035 143.516 445.234 142.602 445.234C140.828 445.234 139.422 444.66 138.383 443.512C137.344 442.363 136.824 440.777 136.824 438.754V438.461C136.824 436.531 137.34 434.988 138.371 433.832C139.402 432.668 140.809 432.086 142.59 432.086C144.098 432.086 145.324 432.527 146.27 433.41C147.223 434.285 147.723 435.438 147.77 436.867H145.086C145.055 436.141 144.805 435.543 144.336 435.074C143.875 434.605 143.285 434.371 142.566 434.371C141.645 434.371 140.934 434.707 140.434 435.379C139.934 436.043 139.68 437.055 139.672 438.414V438.871C139.672 440.246 139.918 441.273 140.41 441.953C140.91 442.625 141.629 442.961 142.566 442.961ZM160.159 434.922C159.784 434.859 159.397 434.828 158.998 434.828C157.694 434.828 156.815 435.328 156.362 436.328V445H153.514V432.32H156.233L156.303 433.738C156.991 432.637 157.944 432.086 159.162 432.086C159.569 432.086 159.905 432.141 160.17 432.25L160.159 434.922ZM168.587 445H165.739V432.32H168.587V445ZM165.563 429.027C165.563 428.59 165.7 428.227 165.973 427.938C166.255 427.648 166.653 427.504 167.169 427.504C167.684 427.504 168.083 427.648 168.364 427.938C168.645 428.227 168.786 428.59 168.786 429.027C168.786 429.457 168.645 429.816 168.364 430.105C168.083 430.387 167.684 430.527 167.169 430.527C166.653 430.527 166.255 430.387 165.973 430.105C165.7 429.816 165.563 429.457 165.563 429.027ZM186.402 438.789C186.402 440.75 185.956 442.316 185.066 443.488C184.175 444.652 182.98 445.234 181.48 445.234C180.089 445.234 178.976 444.777 178.14 443.863V449.875H175.292V432.32H177.917L178.034 433.609C178.87 432.594 180.007 432.086 181.445 432.086C182.991 432.086 184.202 432.664 185.077 433.82C185.96 434.969 186.402 436.566 186.402 438.613V438.789ZM183.566 438.543C183.566 437.277 183.312 436.273 182.804 435.531C182.304 434.789 181.585 434.418 180.648 434.418C179.484 434.418 178.648 434.898 178.14 435.859V441.484C178.655 442.469 179.499 442.961 180.671 442.961C181.577 442.961 182.284 442.598 182.792 441.871C183.308 441.137 183.566 440.027 183.566 438.543ZM195.99 429.238V432.32H198.228V434.43H195.99V441.508C195.99 441.992 196.084 442.344 196.271 442.562C196.466 442.773 196.81 442.879 197.302 442.879C197.63 442.879 197.962 442.84 198.298 442.762V444.965C197.65 445.145 197.025 445.234 196.423 445.234C194.236 445.234 193.142 444.027 193.142 441.613V434.43H191.056V432.32H193.142V429.238H195.99ZM64.2148 473V462.43H62.2812V460.32H64.2148V459.453C64.2227 458.461 64.4336 457.609 64.8477 456.898C65.2617 456.188 65.8477 455.652 66.6055 455.293C67.3633 454.934 68.2734 454.754 69.3359 454.754C69.9609 454.754 70.5586 454.82 71.1289 454.953C71.707 455.086 72.3047 455.254 72.9219 455.457L72.4883 457.812C71.4102 457.438 70.4258 457.25 69.5352 457.25C68.668 457.25 68.0391 457.441 67.6484 457.824C67.2578 458.199 67.0625 458.766 67.0625 459.523V460.32H69.5586V462.43H67.0625V473H64.2148ZM74.2695 473H71.4219V460.32H74.2695V473ZM80.5297 466.566C80.5297 464.598 80.9906 463.027 81.9125 461.855C82.8422 460.676 84.0727 460.086 85.6039 460.086C87.0492 460.086 88.1859 460.59 89.0141 461.598L89.143 460.32H91.7094V472.613C91.7094 474.277 91.1898 475.59 90.1508 476.551C89.1195 477.512 87.725 477.992 85.9672 477.992C85.0375 477.992 84.1273 477.797 83.2367 477.406C82.3539 477.023 81.682 476.52 81.2211 475.895L82.5688 474.184C83.4438 475.223 84.5219 475.742 85.8031 475.742C86.7484 475.742 87.4945 475.484 88.0414 474.969C88.5883 474.461 88.8617 473.711 88.8617 472.719V471.863C88.0414 472.777 86.9477 473.234 85.5805 473.234C84.0961 473.234 82.8813 472.645 81.9359 471.465C80.9984 470.285 80.5297 468.652 80.5297 466.566ZM83.3656 466.812C83.3656 468.086 83.6234 469.09 84.1391 469.824C84.6625 470.551 85.3852 470.914 86.307 470.914C87.4555 470.914 88.307 470.422 88.8617 469.438V463.859C88.3227 462.898 87.4789 462.418 86.3305 462.418C85.393 462.418 84.6625 462.789 84.1391 463.531C83.6234 464.273 83.3656 465.367 83.3656 466.812ZM100.923 460.32L101.005 461.645C101.895 460.605 103.114 460.086 104.661 460.086C106.356 460.086 107.516 460.734 108.141 462.031C109.063 460.734 110.36 460.086 112.032 460.086C113.43 460.086 114.47 460.473 115.149 461.246C115.837 462.02 116.188 463.16 116.204 464.668V473H113.356V464.75C113.356 463.945 113.18 463.355 112.829 462.98C112.477 462.605 111.895 462.418 111.083 462.418C110.434 462.418 109.903 462.594 109.489 462.945C109.083 463.289 108.798 463.742 108.634 464.305L108.645 473H105.798V464.656C105.759 463.164 104.997 462.418 103.513 462.418C102.372 462.418 101.563 462.883 101.087 463.812V473H98.2391V460.32H100.923ZM130.304 473C130.179 472.758 130.07 472.363 129.976 471.816C129.07 472.762 127.96 473.234 126.648 473.234C125.374 473.234 124.335 472.871 123.53 472.145C122.726 471.418 122.323 470.52 122.323 469.449C122.323 468.098 122.823 467.062 123.823 466.344C124.831 465.617 126.269 465.254 128.136 465.254H129.882V464.422C129.882 463.766 129.698 463.242 129.331 462.852C128.964 462.453 128.405 462.254 127.655 462.254C127.007 462.254 126.476 462.418 126.062 462.746C125.648 463.066 125.441 463.477 125.441 463.977H122.593C122.593 463.281 122.823 462.633 123.284 462.031C123.745 461.422 124.37 460.945 125.159 460.602C125.956 460.258 126.843 460.086 127.82 460.086C129.304 460.086 130.487 460.461 131.37 461.211C132.253 461.953 132.706 463 132.73 464.352V470.07C132.73 471.211 132.89 472.121 133.21 472.801V473H130.304ZM127.175 470.949C127.737 470.949 128.265 470.812 128.757 470.539C129.257 470.266 129.632 469.898 129.882 469.438V467.047H128.347C127.292 467.047 126.499 467.23 125.968 467.598C125.437 467.965 125.171 468.484 125.171 469.156C125.171 469.703 125.351 470.141 125.71 470.469C126.077 470.789 126.566 470.949 127.175 470.949ZM74.5859 494.789C74.5859 496.758 74.1445 498.324 73.2617 499.488C72.3867 500.652 71.1797 501.234 69.6406 501.234C68.1562 501.234 67 500.699 66.1719 499.629L66.0312 501H63.4531V483H66.3008V489.539C67.1211 488.57 68.2266 488.086 69.6172 488.086C71.1641 488.086 72.3789 488.66 73.2617 489.809C74.1445 490.957 74.5859 492.562 74.5859 494.625V494.789ZM71.7383 494.543C71.7383 493.168 71.4961 492.137 71.0117 491.449C70.5273 490.762 69.8242 490.418 68.9023 490.418C67.668 490.418 66.8008 490.957 66.3008 492.035V497.262C66.8086 498.363 67.6836 498.914 68.9258 498.914C69.8164 498.914 70.5039 498.582 70.9883 497.918C71.4727 497.254 71.7227 496.25 71.7383 494.906V494.543ZM80.0492 494.543C80.0492 493.301 80.2953 492.184 80.7875 491.191C81.2797 490.191 81.9711 489.426 82.8617 488.895C83.7523 488.355 84.7758 488.086 85.932 488.086C87.643 488.086 89.0297 488.637 90.0922 489.738C91.1625 490.84 91.7406 492.301 91.8266 494.121L91.8383 494.789C91.8383 496.039 91.5961 497.156 91.1117 498.141C90.6352 499.125 89.9477 499.887 89.0492 500.426C88.1586 500.965 87.1273 501.234 85.9555 501.234C84.1664 501.234 82.7328 500.641 81.6547 499.453C80.5844 498.258 80.0492 496.668 80.0492 494.684V494.543ZM82.8969 494.789C82.8969 496.094 83.1664 497.117 83.7055 497.859C84.2445 498.594 84.9945 498.961 85.9555 498.961C86.9164 498.961 87.6625 498.586 88.1938 497.836C88.7328 497.086 89.0023 495.988 89.0023 494.543C89.0023 493.262 88.725 492.246 88.1703 491.496C87.6234 490.746 86.8773 490.371 85.932 490.371C85.0023 490.371 84.2641 490.742 83.7172 491.484C83.1703 492.219 82.8969 493.32 82.8969 494.789ZM97.3133 494.543C97.3133 493.301 97.5594 492.184 98.0516 491.191C98.5438 490.191 99.2352 489.426 100.126 488.895C101.016 488.355 102.04 488.086 103.196 488.086C104.907 488.086 106.294 488.637 107.356 489.738C108.427 490.84 109.005 492.301 109.091 494.121L109.102 494.789C109.102 496.039 108.86 497.156 108.376 498.141C107.899 499.125 107.212 499.887 106.313 500.426C105.423 500.965 104.391 501.234 103.22 501.234C101.43 501.234 99.9969 500.641 98.9188 499.453C97.8484 498.258 97.3133 496.668 97.3133 494.684V494.543ZM100.161 494.789C100.161 496.094 100.43 497.117 100.97 497.859C101.509 498.594 102.259 498.961 103.22 498.961C104.18 498.961 104.927 498.586 105.458 497.836C105.997 497.086 106.266 495.988 106.266 494.543C106.266 493.262 105.989 492.246 105.434 491.496C104.888 490.746 104.141 490.371 103.196 490.371C102.266 490.371 101.528 490.742 100.981 491.484C100.434 492.219 100.161 493.32 100.161 494.789ZM118.679 485.238V488.32H120.917V490.43H118.679V497.508C118.679 497.992 118.773 498.344 118.96 498.562C119.155 498.773 119.499 498.879 119.991 498.879C120.32 498.879 120.652 498.84 120.987 498.762V500.965C120.339 501.145 119.714 501.234 119.112 501.234C116.925 501.234 115.831 500.027 115.831 497.613V490.43H113.745V488.32H115.831V485.238H118.679ZM133.81 497.555C133.81 497.047 133.599 496.66 133.177 496.395C132.763 496.129 132.072 495.895 131.103 495.691C130.134 495.488 129.326 495.23 128.677 494.918C127.255 494.23 126.545 493.234 126.545 491.93C126.545 490.836 127.005 489.922 127.927 489.188C128.849 488.453 130.021 488.086 131.443 488.086C132.959 488.086 134.181 488.461 135.111 489.211C136.048 489.961 136.517 490.934 136.517 492.129H133.67C133.67 491.582 133.466 491.129 133.06 490.77C132.654 490.402 132.115 490.219 131.443 490.219C130.818 490.219 130.306 490.363 129.908 490.652C129.517 490.941 129.322 491.328 129.322 491.812C129.322 492.25 129.505 492.59 129.873 492.832C130.24 493.074 130.982 493.32 132.099 493.57C133.216 493.812 134.091 494.105 134.724 494.449C135.365 494.785 135.838 495.191 136.142 495.668C136.455 496.145 136.611 496.723 136.611 497.402C136.611 498.543 136.138 499.469 135.193 500.18C134.248 500.883 133.009 501.234 131.478 501.234C130.439 501.234 129.513 501.047 128.701 500.672C127.888 500.297 127.255 499.781 126.802 499.125C126.349 498.469 126.123 497.762 126.123 497.004H128.888C128.927 497.676 129.181 498.195 129.65 498.562C130.119 498.922 130.74 499.102 131.513 499.102C132.263 499.102 132.834 498.961 133.224 498.68C133.615 498.391 133.81 498.016 133.81 497.555ZM146.27 485.238V488.32H148.508V490.43H146.27V497.508C146.27 497.992 146.363 498.344 146.551 498.562C146.746 498.773 147.09 498.879 147.582 498.879C147.91 498.879 148.242 498.84 148.578 498.762V500.965C147.93 501.145 147.305 501.234 146.703 501.234C144.516 501.234 143.422 500.027 143.422 497.613V490.43H141.336V488.32H143.422V485.238H146.27ZM160.932 490.922C160.557 490.859 160.17 490.828 159.772 490.828C158.467 490.828 157.588 491.328 157.135 492.328V501H154.287V488.32H157.006L157.077 489.738C157.764 488.637 158.717 488.086 159.936 488.086C160.342 488.086 160.678 488.141 160.944 488.25L160.932 490.922ZM173.555 501C173.43 500.758 173.321 500.363 173.227 499.816C172.321 500.762 171.212 501.234 169.899 501.234C168.626 501.234 167.587 500.871 166.782 500.145C165.977 499.418 165.575 498.52 165.575 497.449C165.575 496.098 166.075 495.062 167.075 494.344C168.083 493.617 169.52 493.254 171.387 493.254H173.134V492.422C173.134 491.766 172.95 491.242 172.583 490.852C172.216 490.453 171.657 490.254 170.907 490.254C170.259 490.254 169.727 490.418 169.313 490.746C168.899 491.066 168.692 491.477 168.692 491.977H165.845C165.845 491.281 166.075 490.633 166.536 490.031C166.997 489.422 167.622 488.945 168.411 488.602C169.208 488.258 170.095 488.086 171.071 488.086C172.555 488.086 173.739 488.461 174.622 489.211C175.505 489.953 175.958 491 175.981 492.352V498.07C175.981 499.211 176.141 500.121 176.462 500.801V501H173.555ZM170.427 498.949C170.989 498.949 171.516 498.812 172.009 498.539C172.509 498.266 172.884 497.898 173.134 497.438V495.047H171.598C170.544 495.047 169.751 495.23 169.22 495.598C168.688 495.965 168.423 496.484 168.423 497.156C168.423 497.703 168.602 498.141 168.962 498.469C169.329 498.789 169.817 498.949 170.427 498.949ZM193.667 494.789C193.667 496.75 193.222 498.316 192.331 499.488C191.441 500.652 190.245 501.234 188.745 501.234C187.355 501.234 186.241 500.777 185.405 499.863V505.875H182.558V488.32H185.183L185.3 489.609C186.136 488.594 187.273 488.086 188.71 488.086C190.257 488.086 191.468 488.664 192.343 489.82C193.226 490.969 193.667 492.566 193.667 494.613V494.789ZM190.831 494.543C190.831 493.277 190.577 492.273 190.07 491.531C189.57 490.789 188.851 490.418 187.913 490.418C186.749 490.418 185.913 490.898 185.405 491.859V497.484C185.921 498.469 186.765 498.961 187.937 498.961C188.843 498.961 189.55 498.598 190.058 497.871C190.573 497.137 190.831 496.027 190.831 494.543Z" fill="#4F4F4F"/>
<circle cx="109" cy="279" r="32" fill="#4F4F4F"/>
<circle cx="109" cy="279" r="24" fill="#828282"/>
<circle cx="109" cy="279" r="18" fill="#BDBDBD"/>
<circle cx="109" cy="279" r="14" fill="#E0E0E0"/>
<circle cx="197" cy="279" r="32" fill="#2F4DED"/>
<circle cx="197" cy="279" r="24" fill="#2F80ED"/>
<circle cx="197" cy="279" r="18" fill="#56CCF2"/>
<circle cx="197" cy="279" r="14" fill="white"/>
<g filter="url(#filter0_d)">
<path d="M718.875 730.219C718.875 730.74 718.693 731 718.328 731H715.734C715.536 731 715.365 730.938 715.219 730.812C715.073 730.688 714.99 730.531 714.969 730.344L713.891 721C713.755 719.823 713.651 718.661 713.578 717.516C713.516 716.37 713.443 715.172 713.359 713.922L713.203 711.703C713.203 711.661 713.188 711.641 713.156 711.641C713.135 711.641 713.12 711.656 713.109 711.688L712.406 714.25C712.26 714.771 712.099 715.292 711.922 715.812L707.047 729.078C706.995 729.234 706.891 729.38 706.734 729.516C706.578 729.651 706.422 729.719 706.266 729.719H703.812C703.49 729.719 703.229 729.51 703.031 729.094C699.417 720.625 697.49 716.099 697.25 715.516C697.021 714.922 696.818 714.359 696.641 713.828L695.938 711.672C695.927 711.641 695.906 711.625 695.875 711.625C695.854 711.625 695.839 711.646 695.828 711.688V714.219C695.828 716.427 695.74 718.682 695.562 720.984L694.859 730.344C694.839 730.51 694.74 730.661 694.562 730.797C694.396 730.932 694.219 731 694.031 731H691.875C691.625 731 691.417 730.891 691.25 730.672C691.094 730.453 691.031 730.188 691.062 729.875L692.938 709.312C693.01 708.448 693.115 707.901 693.25 707.672C693.49 707.255 693.927 707.047 694.562 707.047H696.25C696.76 707.047 697.115 707.115 697.312 707.25C697.677 707.49 697.995 707.943 698.266 708.609L705 725.016L710.891 708.594C711.234 707.562 711.818 707.047 712.641 707.047H714.406C715.323 707.047 715.859 707.469 716.016 708.312C716.057 708.583 716.099 708.875 716.141 709.188L718.844 729.891C718.865 729.995 718.875 730.104 718.875 730.219ZM727.55 722.125C727.55 720.771 727.774 719.531 728.222 718.406C728.68 717.271 729.305 716.302 730.097 715.5C731.753 713.823 733.842 712.984 736.362 712.984C739.185 712.984 741.373 713.823 742.925 715.5C744.425 717.115 745.175 719.333 745.175 722.156C745.175 724.885 744.326 727.115 742.628 728.844C740.972 730.542 738.883 731.391 736.362 731.391C733.706 731.391 731.571 730.521 729.956 728.781C728.352 727.083 727.55 724.865 727.55 722.125ZM732.566 718.156C732.18 718.729 731.899 719.385 731.722 720.125C731.545 720.854 731.456 721.599 731.456 722.359C731.456 723.109 731.555 723.833 731.753 724.531C731.961 725.219 732.269 725.833 732.675 726.375C733.571 727.562 734.821 728.156 736.425 728.156C738.06 728.156 739.3 727.573 740.144 726.406C740.894 725.385 741.269 723.995 741.269 722.234C741.269 719.599 740.404 717.781 738.675 716.781C738.04 716.417 737.269 716.234 736.362 716.234C735.467 716.234 734.706 716.411 734.081 716.766C733.467 717.109 732.961 717.573 732.566 718.156ZM755.162 704.281C755.162 704 755.241 703.766 755.397 703.578C755.564 703.391 755.761 703.297 755.991 703.297H758.131C758.371 703.297 758.569 703.391 758.725 703.578C758.881 703.766 758.959 704 758.959 704.281V716.109C759.855 714.589 761.173 713.615 762.912 713.188C763.465 713.052 764.162 712.984 765.006 712.984C765.86 712.984 766.657 713.172 767.397 713.547C768.136 713.911 768.725 714.417 769.162 715.062C769.944 716.24 770.334 717.974 770.334 720.266V729.969C770.334 730.281 770.241 730.531 770.053 730.719C769.866 730.906 769.59 731 769.225 731H767.694C767.298 731 767.006 730.901 766.819 730.703C766.631 730.505 766.537 730.26 766.537 729.969V720.25C766.537 717.583 765.558 716.25 763.6 716.25C762.506 716.25 761.475 716.729 760.506 717.688C759.475 718.729 758.959 719.927 758.959 721.281V729.969C758.959 730.26 758.871 730.505 758.694 730.703C758.517 730.901 758.23 731 757.834 731H756.131C755.829 731 755.59 730.901 755.412 730.703C755.246 730.505 755.162 730.26 755.162 729.969V704.281ZM794.978 730.172C794.978 730.724 794.707 731 794.166 731H792.65C792.244 731 791.999 730.922 791.916 730.766C791.832 730.599 791.785 730.453 791.775 730.328C791.765 730.193 791.744 730.031 791.713 729.844C791.65 729.333 791.561 728.781 791.447 728.188C790.634 729.677 789.358 730.661 787.619 731.141C787.004 731.307 786.327 731.391 785.588 731.391C784.848 731.391 784.108 731.266 783.369 731.016C782.629 730.776 781.973 730.417 781.4 729.938C780.108 728.854 779.463 727.432 779.463 725.672C779.463 723.745 780.171 722.271 781.588 721.25C782.754 720.427 784.254 720.016 786.088 720.016C787.921 720.016 789.473 720.552 790.744 721.625C790.775 721.271 790.791 720.828 790.791 720.297C790.791 719.766 790.686 719.234 790.478 718.703C790.27 718.172 789.973 717.729 789.588 717.375C788.796 716.677 787.692 716.328 786.275 716.328C785.004 716.328 783.713 716.677 782.4 717.375C782.15 717.51 781.931 717.578 781.744 717.578C781.463 717.578 781.192 717.302 780.931 716.75C780.65 716.188 780.509 715.781 780.509 715.531C780.509 715.073 780.853 714.63 781.541 714.203C782.853 713.391 784.608 712.984 786.806 712.984C788.806 712.984 790.463 713.531 791.775 714.625C793.327 715.938 794.103 717.792 794.103 720.188C794.103 721.25 793.931 722.589 793.588 724.203C794.473 726.724 794.936 728.714 794.978 730.172ZM784.509 723.547C784.082 723.859 783.775 724.172 783.588 724.484C783.41 724.797 783.322 725.167 783.322 725.594C783.322 726.01 783.395 726.385 783.541 726.719C783.697 727.042 783.91 727.312 784.181 727.531C784.754 727.979 785.395 728.203 786.103 728.203C786.822 728.203 787.41 728.12 787.869 727.953C788.327 727.786 788.723 727.573 789.056 727.312C789.775 726.75 790.134 726.156 790.134 725.531C790.072 724.75 789.64 724.135 788.838 723.688C788.119 723.271 787.27 723.062 786.291 723.062C785.53 723.062 784.936 723.224 784.509 723.547ZM813.919 712.984C816.544 712.984 818.205 714.156 818.903 716.5C819.945 714.823 821.325 713.729 823.044 713.219C823.627 713.052 824.361 712.969 825.247 712.969C826.132 712.969 826.986 713.188 827.809 713.625C828.643 714.062 829.257 714.635 829.653 715.344C830.059 716.042 830.315 716.812 830.419 717.656C830.533 718.5 830.591 719.406 830.591 720.375V729.969C830.591 730.26 830.497 730.505 830.309 730.703C830.122 730.901 829.846 731 829.481 731H827.95C827.554 731 827.262 730.901 827.075 730.703C826.887 730.505 826.794 730.26 826.794 729.969V720.234C826.794 718.891 826.559 717.891 826.091 717.234C825.632 716.578 824.903 716.25 823.903 716.25C822.768 716.25 821.773 716.75 820.919 717.75C820.002 718.792 819.544 720.083 819.544 721.625V729.969C819.544 730.26 819.45 730.505 819.262 730.703C819.075 730.901 818.799 731 818.434 731H816.903C816.507 731 816.216 730.901 816.028 730.703C815.841 730.505 815.747 730.26 815.747 729.969V720.234C815.747 718.891 815.512 717.891 815.044 717.234C814.585 716.578 813.856 716.25 812.856 716.25C811.721 716.25 810.721 716.75 809.856 717.75C808.95 718.792 808.497 720.083 808.497 721.625V729.969C808.497 730.26 808.408 730.505 808.231 730.703C808.054 730.901 807.783 731 807.419 731H805.809C805.445 731 805.169 730.901 804.981 730.703C804.794 730.505 804.7 730.26 804.7 729.969V720.375C804.7 718.281 804.632 716.823 804.497 716C804.361 715.167 804.294 714.667 804.294 714.5C804.294 713.75 804.653 713.375 805.372 713.375H806.231C806.815 713.375 807.21 713.594 807.419 714.031C807.669 714.562 807.908 715.385 808.137 716.5C809.044 714.865 810.356 713.781 812.075 713.25C812.658 713.073 813.273 712.984 813.919 712.984ZM850.656 712.984C853.281 712.984 854.943 714.156 855.641 716.5C856.682 714.823 858.062 713.729 859.781 713.219C860.365 713.052 861.099 712.969 861.984 712.969C862.87 712.969 863.724 713.188 864.547 713.625C865.38 714.062 865.995 714.635 866.391 715.344C866.797 716.042 867.052 716.812 867.156 717.656C867.271 718.5 867.328 719.406 867.328 720.375V729.969C867.328 730.26 867.234 730.505 867.047 730.703C866.859 730.901 866.583 731 866.219 731H864.688C864.292 731 864 730.901 863.812 730.703C863.625 730.505 863.531 730.26 863.531 729.969V720.234C863.531 718.891 863.297 717.891 862.828 717.234C862.37 716.578 861.641 716.25 860.641 716.25C859.505 716.25 858.51 716.75 857.656 717.75C856.74 718.792 856.281 720.083 856.281 721.625V729.969C856.281 730.26 856.188 730.505 856 730.703C855.812 730.901 855.536 731 855.172 731H853.641C853.245 731 852.953 730.901 852.766 730.703C852.578 730.505 852.484 730.26 852.484 729.969V720.234C852.484 718.891 852.25 717.891 851.781 717.234C851.323 716.578 850.594 716.25 849.594 716.25C848.458 716.25 847.458 716.75 846.594 717.75C845.688 718.792 845.234 720.083 845.234 721.625V729.969C845.234 730.26 845.146 730.505 844.969 730.703C844.792 730.901 844.521 731 844.156 731H842.547C842.182 731 841.906 730.901 841.719 730.703C841.531 730.505 841.438 730.26 841.438 729.969V720.375C841.438 718.281 841.37 716.823 841.234 716C841.099 715.167 841.031 714.667 841.031 714.5C841.031 713.75 841.391 713.375 842.109 713.375H842.969C843.552 713.375 843.948 713.594 844.156 714.031C844.406 714.562 844.646 715.385 844.875 716.5C845.781 714.865 847.094 713.781 848.812 713.25C849.396 713.073 850.01 712.984 850.656 712.984ZM891.941 730.172C891.941 730.724 891.67 731 891.128 731H889.613C889.206 731 888.961 730.922 888.878 730.766C888.795 730.599 888.748 730.453 888.738 730.328C888.727 730.193 888.706 730.031 888.675 729.844C888.613 729.333 888.524 728.781 888.409 728.188C887.597 729.677 886.321 730.661 884.581 731.141C883.967 731.307 883.29 731.391 882.55 731.391C881.81 731.391 881.071 731.266 880.331 731.016C879.592 730.776 878.935 730.417 878.363 729.938C877.071 728.854 876.425 727.432 876.425 725.672C876.425 723.745 877.133 722.271 878.55 721.25C879.717 720.427 881.217 720.016 883.05 720.016C884.883 720.016 886.435 720.552 887.706 721.625C887.738 721.271 887.753 720.828 887.753 720.297C887.753 719.766 887.649 719.234 887.441 718.703C887.232 718.172 886.935 717.729 886.55 717.375C885.758 716.677 884.654 716.328 883.238 716.328C881.967 716.328 880.675 716.677 879.363 717.375C879.113 717.51 878.894 717.578 878.706 717.578C878.425 717.578 878.154 717.302 877.894 716.75C877.613 716.188 877.472 715.781 877.472 715.531C877.472 715.073 877.816 714.63 878.503 714.203C879.816 713.391 881.571 712.984 883.769 712.984C885.769 712.984 887.425 713.531 888.738 714.625C890.29 715.938 891.066 717.792 891.066 720.188C891.066 721.25 890.894 722.589 890.55 724.203C891.435 726.724 891.899 728.714 891.941 730.172ZM881.472 723.547C881.045 723.859 880.738 724.172 880.55 724.484C880.373 724.797 880.284 725.167 880.284 725.594C880.284 726.01 880.357 726.385 880.503 726.719C880.659 727.042 880.873 727.312 881.144 727.531C881.717 727.979 882.357 728.203 883.066 728.203C883.784 728.203 884.373 728.12 884.831 727.953C885.29 727.786 885.685 727.573 886.019 727.312C886.738 726.75 887.097 726.156 887.097 725.531C887.034 724.75 886.602 724.135 885.8 723.688C885.081 723.271 884.232 723.062 883.253 723.062C882.493 723.062 881.899 723.224 881.472 723.547ZM912.928 715.578V704.281C912.928 704.01 913.006 703.781 913.163 703.594C913.329 703.396 913.532 703.297 913.772 703.297H915.944C916.183 703.297 916.381 703.396 916.538 703.594C916.694 703.781 916.772 704.01 916.772 704.281V724.312C916.772 726.417 916.939 728.161 917.272 729.547C917.303 729.693 917.319 729.88 917.319 730.109C917.319 730.328 917.22 730.531 917.022 730.719C916.834 730.906 916.59 731 916.288 731H915.522C914.907 731 914.496 730.75 914.288 730.25C914.017 729.615 913.793 728.776 913.616 727.734C912.814 729.432 911.465 730.562 909.569 731.125C908.944 731.302 908.163 731.391 907.225 731.391C906.298 731.391 905.371 731.151 904.444 730.672C903.527 730.193 902.746 729.542 902.1 728.719C900.777 727.01 900.116 724.885 900.116 722.344C900.116 719.719 900.756 717.542 902.038 715.812C903.423 713.927 905.272 712.984 907.584 712.984C909.897 712.984 911.678 713.849 912.928 715.578ZM904.116 722.453C904.116 723.161 904.199 723.854 904.366 724.531C904.543 725.208 904.808 725.812 905.163 726.344C905.954 727.552 907.048 728.156 908.444 728.156C909.715 728.156 910.829 727.604 911.788 726.5C912.808 725.354 913.319 724 913.319 722.438C913.319 720.542 912.824 719.021 911.834 717.875C910.886 716.781 909.72 716.234 908.334 716.234C906.886 716.234 905.788 716.917 905.038 718.281C904.423 719.427 904.116 720.818 904.116 722.453ZM946.216 722.953L937.716 708.312C937.622 708.156 937.575 707.984 937.575 707.797C937.575 707.609 937.643 707.438 937.778 707.281C937.914 707.125 938.085 707.047 938.294 707.047H940.809C941.236 707.047 941.533 707.188 941.7 707.469C941.742 707.552 941.789 707.635 941.841 707.719L948.075 719.141C948.117 719.234 948.153 719.281 948.184 719.281C948.226 719.281 948.539 718.812 949.122 717.875C949.705 716.927 950.471 715.531 951.419 713.688C952.367 711.844 953.236 709.943 954.028 707.984C954.153 707.672 954.299 707.438 954.466 707.281C954.632 707.125 954.882 707.047 955.216 707.047H957.637C957.887 707.047 958.075 707.135 958.2 707.312C958.325 707.479 958.387 707.672 958.387 707.891C958.387 708.099 958.346 708.297 958.262 708.484C955.565 714.057 952.846 718.802 950.106 722.719V730C950.106 730.281 950.018 730.521 949.841 730.719C949.674 730.906 949.471 731 949.231 731H947.075C946.835 731 946.632 730.901 946.466 730.703C946.299 730.505 946.216 730.271 946.216 730V722.953ZM965.188 722.125C965.188 720.771 965.411 719.531 965.859 718.406C966.318 717.271 966.943 716.302 967.734 715.5C969.391 713.823 971.479 712.984 974 712.984C976.823 712.984 979.01 713.823 980.562 715.5C982.062 717.115 982.812 719.333 982.812 722.156C982.812 724.885 981.964 727.115 980.266 728.844C978.609 730.542 976.521 731.391 974 731.391C971.344 731.391 969.208 730.521 967.594 728.781C965.99 727.083 965.188 724.865 965.188 722.125ZM970.203 718.156C969.818 718.729 969.536 719.385 969.359 720.125C969.182 720.854 969.094 721.599 969.094 722.359C969.094 723.109 969.193 723.833 969.391 724.531C969.599 725.219 969.906 725.833 970.312 726.375C971.208 727.562 972.458 728.156 974.062 728.156C975.698 728.156 976.938 727.573 977.781 726.406C978.531 725.385 978.906 723.995 978.906 722.234C978.906 719.599 978.042 717.781 976.312 716.781C975.677 716.417 974.906 716.234 974 716.234C973.104 716.234 972.344 716.411 971.719 716.766C971.104 717.109 970.599 717.573 970.203 718.156ZM997.222 728.188C999.222 728.188 1000.22 727.516 1000.22 726.172C1000.22 725.432 999.654 724.807 998.519 724.297C998.04 724.078 997.514 723.875 996.941 723.688C996.378 723.5 995.836 723.276 995.316 723.016C994.795 722.755 994.305 722.474 993.847 722.172C993.399 721.859 993.008 721.505 992.675 721.109C991.987 720.276 991.644 719.219 991.644 717.938C991.644 716.375 992.295 715.135 993.597 714.219C994.753 713.396 996.175 712.984 997.862 712.984C999.675 712.984 1001.19 713.339 1002.41 714.047C1002.83 714.297 1003.03 714.583 1003.03 714.906C1003.03 715.365 1002.91 715.87 1002.66 716.422C1002.42 716.964 1002.13 717.234 1001.8 717.234C1001.48 717.234 1001.18 717.167 1000.91 717.031C1000.65 716.896 1000.41 716.781 1000.19 716.688C999.982 716.583 999.758 716.5 999.519 716.438C998.998 716.281 998.514 716.203 998.066 716.203C997.628 716.203 997.274 716.234 997.003 716.297C996.732 716.359 996.487 716.458 996.269 716.594C995.737 716.917 995.472 717.312 995.472 717.781C995.472 718.25 995.576 718.609 995.784 718.859C996.003 719.109 996.3 719.339 996.675 719.547C997.05 719.755 997.498 719.964 998.019 720.172L999.706 720.875C1001.07 721.469 1001.99 722.005 1002.47 722.484C1003.41 723.443 1003.88 724.552 1003.88 725.812C1003.88 727.396 1003.34 728.698 1002.25 729.719C1001.06 730.833 999.352 731.391 997.144 731.391C994.904 731.391 993.222 730.958 992.097 730.094C991.545 729.677 991.269 729.302 991.269 728.969C991.269 728.635 991.326 728.339 991.441 728.078C991.566 727.807 991.722 727.495 991.909 727.141C992.107 726.776 992.368 726.594 992.691 726.594C993.024 726.594 993.373 726.745 993.737 727.047C994.112 727.339 994.623 727.604 995.269 727.844C995.915 728.073 996.566 728.188 997.222 728.188ZM1015.76 723.047L1015.74 723.344C1015.74 724.771 1016.19 725.917 1017.1 726.781C1018.05 727.698 1019.33 728.156 1020.96 728.156C1022.44 728.156 1023.81 727.714 1025.08 726.828C1025.32 726.661 1025.54 726.578 1025.73 726.578C1026.11 726.578 1026.4 726.771 1026.6 727.156L1027.02 728.031C1027.12 728.24 1027.16 728.464 1027.16 728.703C1027.16 728.943 1027.05 729.193 1026.83 729.453C1026.63 729.703 1026.35 729.932 1026.01 730.141C1025.66 730.349 1025.26 730.531 1024.8 730.688C1024.36 730.844 1023.89 730.974 1023.41 731.078C1022.45 731.286 1021.45 731.391 1020.41 731.391C1019.37 731.391 1018.32 731.193 1017.26 730.797C1016.2 730.401 1015.29 729.823 1014.52 729.062C1012.87 727.448 1012.04 725.266 1012.04 722.516C1012.04 717.693 1013.74 714.693 1017.13 713.516C1018.19 713.151 1019.28 712.969 1020.4 712.969C1021.52 712.969 1022.48 713.089 1023.26 713.328C1024.05 713.568 1024.73 713.922 1025.3 714.391C1026.51 715.38 1027.12 716.76 1027.12 718.531C1027.12 720.271 1026.41 721.599 1024.99 722.516C1023.75 723.318 1022.12 723.719 1020.08 723.719C1018.83 723.719 1017.39 723.495 1015.76 723.047ZM1023.44 718.484C1023.44 716.995 1022.44 716.25 1020.44 716.25C1018.54 716.25 1017.2 716.948 1016.44 718.344C1016.17 718.833 1016 719.438 1015.91 720.156C1016.81 720.604 1017.95 720.828 1019.33 720.828C1022.07 720.828 1023.44 720.047 1023.44 718.484ZM1046.65 715.75C1046.65 716.333 1046.32 716.625 1045.67 716.625H1041.85V729.891C1041.85 730.224 1041.76 730.495 1041.57 730.703C1041.38 730.901 1041.12 731 1040.79 731H1039.26C1038.89 731 1038.61 730.901 1038.42 730.703C1038.22 730.495 1038.12 730.224 1038.12 729.891V716.625H1035.92C1035.26 716.625 1034.93 716.328 1034.93 715.734V714.859C1034.93 714.62 1034.99 714.443 1035.12 714.328C1035.25 714.203 1035.5 714.089 1035.85 713.984L1038.18 713.609C1037.65 712.214 1037.34 711.182 1037.24 710.516C1037.16 709.839 1037.12 709.198 1037.12 708.594C1037.12 707.979 1037.25 707.339 1037.52 706.672C1037.8 706.005 1038.19 705.417 1038.71 704.906C1039.88 703.76 1041.43 703.188 1043.37 703.188C1044.9 703.188 1046.22 703.516 1047.32 704.172C1047.94 704.547 1048.24 704.885 1048.24 705.188C1048.24 705.479 1048.15 705.755 1047.96 706.016L1047.21 707.078C1047 707.359 1046.81 707.5 1046.62 707.5C1046.44 707.5 1046.27 707.448 1046.1 707.344C1045.94 707.24 1045.74 707.125 1045.51 707C1044.89 706.667 1044.19 706.5 1043.38 706.5C1041.62 706.5 1040.74 707.609 1040.74 709.828C1040.74 710.901 1040.98 712.083 1041.46 713.375H1045.67C1046.32 713.375 1046.65 713.661 1046.65 714.234V715.75Z" fill="#2D9CDB"/>
</g>
<path d="M802.548 121C802.095 121 801.752 120.859 801.517 120.578C801.283 120.281 801.166 120.031 801.166 119.828C801.166 119.609 801.189 119.438 801.236 119.312L813.072 87.4844C813.603 86.0938 814.455 85.3125 815.627 85.1406C816.033 85.0938 816.517 85.0703 817.08 85.0703H817.478C818.541 85.0703 819.275 85.2031 819.681 85.4688C820.338 85.875 820.845 86.5234 821.205 87.4141L833.931 119.336C833.978 119.461 834.002 119.641 834.002 119.875C834.002 120.094 833.908 120.336 833.72 120.602C833.533 120.867 833.22 121 832.783 121H829.502C828.783 121 828.283 120.664 828.002 119.992L825.095 112.375H809.697L807.002 119.992C806.783 120.664 806.306 121 805.572 121H802.548ZM823.127 107.312L817.525 92.0781C817.478 91.9219 817.384 91.8438 817.244 91.8438C817.103 91.8438 817.009 91.9219 816.963 92.0781L811.525 107.312H823.127ZM845.35 117.32C845.35 116.758 845.577 116.094 846.03 115.328C846.483 114.562 846.788 114.094 846.944 113.922C847.256 113.547 847.569 113.359 847.881 113.359C848.209 113.359 848.553 113.461 848.913 113.664C849.272 113.867 849.748 114.125 850.342 114.438C850.952 114.734 851.6 115.016 852.288 115.281C853.819 115.859 855.155 116.148 856.295 116.148C857.452 116.148 858.389 116.047 859.108 115.844C859.827 115.641 860.444 115.336 860.959 114.93C862.022 114.07 862.553 112.867 862.553 111.32C862.553 109.367 861.077 107.703 858.123 106.328C857.28 105.938 856.327 105.547 855.264 105.156C854.217 104.75 853.108 104.211 851.936 103.539C850.78 102.867 849.741 102.078 848.819 101.172C846.772 99.1406 845.748 96.75 845.748 94C845.748 91.0781 846.944 88.7344 849.334 86.9688C851.569 85.3125 854.202 84.4844 857.233 84.4844C860.608 84.4844 863.381 85.2188 865.553 86.6875C866.741 87.4688 867.334 88.1953 867.334 88.8672C867.334 89.2266 867.123 89.8047 866.702 90.6016C866.28 91.3984 865.936 91.9375 865.67 92.2188C865.42 92.5 865.186 92.6406 864.967 92.6406C864.577 92.6406 864.061 92.4297 863.42 92.0078C862.795 91.5859 861.897 91.125 860.725 90.625C859.553 90.125 858.444 89.875 857.397 89.875C856.35 89.875 855.506 89.9609 854.866 90.1328C854.241 90.3047 853.694 90.5625 853.225 90.9062C852.256 91.6406 851.772 92.7109 851.772 94.1172C851.772 96.1484 853.163 97.7578 855.944 98.9453L858.217 99.8828C861.264 101.055 863.577 102.352 865.155 103.773C867.327 105.742 868.413 108.156 868.413 111.016C868.413 114.203 867.209 116.797 864.803 118.797C862.584 120.656 859.983 121.586 856.998 121.586C853.17 121.586 849.913 120.797 847.225 119.219C845.975 118.5 845.35 117.867 845.35 117.32ZM889.206 119.547C889.206 120.516 888.675 121 887.613 121H884.847C884.3 121 883.909 120.852 883.675 120.555C883.441 120.258 883.323 119.922 883.323 119.547V87.1328C883.323 86.5859 883.464 86.1094 883.745 85.7031C884.042 85.2812 884.519 85.0703 885.175 85.0703H894.456C898.831 85.0703 902.222 86.1172 904.628 88.2109C907.144 90.3828 908.402 93.4844 908.402 97.5156C908.402 101.578 906.988 104.828 904.159 107.266C901.472 109.594 898.073 110.758 893.964 110.758C892.667 110.758 891.081 110.641 889.206 110.406V119.547ZM889.206 105.484L891.081 105.695C891.644 105.758 892.409 105.789 893.378 105.789C894.347 105.789 895.394 105.641 896.519 105.344C897.644 105.047 898.628 104.57 899.472 103.914C901.331 102.492 902.261 100.367 902.261 97.5391C902.261 93.9609 900.675 91.6562 897.503 90.625C896.519 90.3125 895.417 90.1562 894.198 90.1562H889.206V105.484ZM919.047 117.461C919.047 116.352 919.438 115.391 920.219 114.578C921 113.781 921.953 113.383 923.078 113.383C924.188 113.383 925.125 113.781 925.891 114.578C926.672 115.391 927.062 116.352 927.062 117.461C927.062 118.586 926.672 119.555 925.891 120.367C925.109 121.18 924.172 121.586 923.078 121.586C921.969 121.586 921.016 121.18 920.219 120.367C919.438 119.555 919.047 118.586 919.047 117.461ZM941.927 87.9766C941.927 86.0391 942.77 85.0703 944.458 85.0703H945.419C946.059 85.0703 946.505 85.1484 946.755 85.3047C947.223 85.5859 947.661 86.0312 948.067 86.6406L963.161 108.859C963.739 109.703 964.192 110.477 964.52 111.18L965.481 113.195C965.497 113.227 965.52 113.242 965.552 113.242C965.598 113.242 965.606 113.039 965.575 112.633C965.544 112.227 965.466 111.641 965.341 110.875C965.216 110.094 965.153 109.32 965.153 108.555V86.5C965.153 86.0938 965.27 85.7578 965.505 85.4922C965.755 85.2109 966.052 85.0703 966.395 85.0703H969.489C969.817 85.0703 970.098 85.2109 970.333 85.4922C970.583 85.7578 970.708 86.0938 970.708 86.5V118.656C970.708 119.281 970.513 119.766 970.122 120.109C969.466 120.703 968.872 121 968.341 121H966.911C966.13 121 965.559 120.875 965.2 120.625C964.669 120.219 964.013 119.453 963.231 118.328C954.309 105.281 949.528 98.2344 948.888 97.1875L946.942 93.9297C946.911 93.8828 946.864 93.8594 946.802 93.8594C946.755 93.8594 946.755 93.9766 946.802 94.2109C946.848 94.4453 946.911 94.8438 946.989 95.4062C947.083 95.9531 947.169 96.5625 947.247 97.2344C947.403 98.7969 947.481 100.25 947.481 101.594V119.57C947.481 119.961 947.356 120.297 947.106 120.578C946.872 120.859 946.583 121 946.239 121H943.145C942.817 121 942.528 120.859 942.278 120.578C942.044 120.297 941.927 119.961 941.927 119.57V87.9766ZM988.853 86.5703C988.853 86.1641 988.978 85.8125 989.228 85.5156C989.494 85.2188 989.806 85.0703 990.166 85.0703H1010.77C1011.17 85.0703 1011.48 85.2031 1011.68 85.4688C1011.9 85.7188 1012.01 86.0312 1012.01 86.4062V88.9375C1012.01 89.2969 1011.9 89.6094 1011.68 89.875C1011.48 90.125 1011.17 90.25 1010.77 90.25H994.736V100.516H1007.49C1007.89 100.516 1008.2 100.648 1008.4 100.914C1008.62 101.164 1008.73 101.477 1008.73 101.852V104.383C1008.73 104.742 1008.62 105.055 1008.4 105.32C1008.2 105.57 1007.89 105.695 1007.49 105.695H994.736V115.82H1010.88C1011.29 115.82 1011.6 115.953 1011.8 116.219C1012.02 116.469 1012.13 116.781 1012.13 117.156V119.688C1012.13 120.047 1012.02 120.359 1011.8 120.625C1011.6 120.875 1011.29 121 1010.88 121H990.142C989.783 121 989.478 120.852 989.228 120.555C988.978 120.258 988.853 119.906 988.853 119.5V86.5703ZM1033.46 90.1797H1025C1024.59 90.1797 1024.24 90.0547 1023.94 89.8047C1023.66 89.5391 1023.52 89.2188 1023.52 88.8438V86.3828C1023.52 86.0234 1023.66 85.7188 1023.94 85.4688C1024.24 85.2031 1024.59 85.0703 1025 85.0703H1048.15C1048.56 85.0703 1048.87 85.2031 1049.07 85.4688C1049.29 85.7188 1049.4 86.0312 1049.4 86.4062V88.8672C1049.4 89.2266 1049.29 89.5391 1049.07 89.8047C1048.85 90.0547 1048.54 90.1797 1048.13 90.1797H1039.37V119.5C1039.37 119.906 1039.23 120.258 1038.97 120.555C1038.72 120.852 1038.41 121 1038.05 121H1034.75C1034.39 121 1034.08 120.852 1033.83 120.555C1033.58 120.258 1033.46 119.906 1033.46 119.5V90.1797ZM935.383 166.352C936.164 167.836 936.555 169.391 936.555 171.016C936.555 172.625 936.211 174.094 935.523 175.422C934.852 176.734 933.938 177.859 932.781 178.797C930.391 180.734 927.453 181.703 923.969 181.703C921.047 181.703 918.492 181.031 916.305 179.688C913.789 178.109 912.531 175.93 912.531 173.148C912.531 170.211 913.859 167.852 916.516 166.07C917.281 165.555 918.086 165.133 918.93 164.805C915.992 164.055 914.031 162.406 913.047 159.859C912.703 158.953 912.531 157.812 912.531 156.438C912.531 155.062 912.867 153.758 913.539 152.523C914.227 151.289 915.117 150.25 916.211 149.406C918.445 147.688 921.023 146.828 923.945 146.828C928.102 146.828 931.406 147.781 933.859 149.688C934.547 150.234 934.906 150.734 934.938 151.188C934.938 151.5 934.859 151.758 934.703 151.961L933.273 154C932.898 154.578 932.469 154.867 931.984 154.867C931.688 154.867 931.375 154.75 931.047 154.516C930.719 154.266 930.305 153.984 929.805 153.672C929.305 153.344 928.773 153.055 928.211 152.805C926.961 152.258 925.82 151.984 924.789 151.984C923.758 151.984 922.891 152.07 922.188 152.242C921.5 152.398 920.883 152.664 920.336 153.039C919.102 153.867 918.484 155.078 918.484 156.672C918.484 158.359 919.43 159.688 921.32 160.656C922.93 161.453 924.727 161.852 926.711 161.852H937.656C938.531 161.852 938.969 162.227 938.969 162.977V165.344C938.969 165.656 938.836 165.906 938.57 166.094C938.32 166.266 938.016 166.352 937.656 166.352H935.383ZM919.164 170.031C918.727 170.844 918.508 171.664 918.508 172.492C918.508 173.305 918.664 173.961 918.977 174.461C919.289 174.961 919.703 175.375 920.219 175.703C921.281 176.406 922.422 176.758 923.641 176.758C924.859 176.758 925.898 176.609 926.758 176.312C927.633 176.016 928.398 175.578 929.055 175C930.477 173.766 931.188 172.094 931.188 169.984C931.188 168.516 930.836 167.398 930.133 166.633C929.977 166.461 929.867 166.328 929.805 166.234C929.633 166.219 929.469 166.211 929.312 166.211H928.82C923.805 166.211 920.586 167.484 919.164 170.031ZM920.275 212.688C920.275 214.625 919.416 215.594 917.697 215.594H916.08C915.58 215.594 915.189 215.414 914.908 215.055C914.642 214.68 914.486 214.172 914.439 213.531C914.408 212.875 914.213 212.281 913.853 211.75C913.494 211.203 913.033 210.766 912.47 210.438C911.423 209.828 910.033 209.523 908.298 209.523C906.564 209.523 905.056 209.891 903.775 210.625C902.494 211.344 901.463 212.312 900.681 213.531C899.181 215.812 898.431 218.859 898.431 222.672C898.431 229.531 900.666 233.844 905.134 235.609C906.509 236.141 907.853 236.406 909.166 236.406C911.541 236.406 913.634 235.977 915.447 235.117L916.759 234.508C917.181 234.32 917.556 234.227 917.884 234.227C918.213 234.227 918.478 234.305 918.681 234.461C918.884 234.617 919.134 234.992 919.431 235.586C919.744 236.164 919.9 236.672 919.9 237.109C919.9 237.531 919.752 237.953 919.455 238.375C919.158 238.781 918.791 239.141 918.353 239.453C917.588 239.953 916.666 240.367 915.588 240.695C913.619 241.289 911.314 241.586 908.673 241.586C906.048 241.586 903.697 241.109 901.619 240.156C899.556 239.203 897.822 237.883 896.416 236.195C893.525 232.758 892.08 228.25 892.08 222.672C892.08 217.172 893.541 212.781 896.463 209.5C899.447 206.125 903.556 204.438 908.791 204.438C911.666 204.438 914.213 205.078 916.431 206.359C918.994 207.828 920.275 209.938 920.275 212.688ZM934.717 232.281H931.178C930.819 232.281 930.514 232.188 930.264 232C930.03 231.797 929.913 231.539 929.913 231.227V229.211C929.913 228.898 930.014 228.633 930.217 228.414C930.436 228.195 930.725 228.086 931.084 228.086H935.42L936.756 220.047H932.514C932.155 220.047 931.85 219.953 931.6 219.766C931.366 219.562 931.248 219.305 931.248 218.992V216.977C931.248 216.664 931.358 216.398 931.577 216.18C931.795 215.961 932.084 215.852 932.444 215.852H937.459L938.631 208.891C938.756 208.125 939.217 207.742 940.014 207.742H942.241C942.678 207.742 942.998 207.883 943.202 208.164C943.42 208.445 943.498 208.766 943.436 209.125L942.311 215.852H949.061L950.233 208.891C950.358 208.125 950.819 207.742 951.616 207.742H953.842C954.28 207.742 954.6 207.883 954.803 208.164C955.022 208.445 955.1 208.766 955.038 209.125L953.913 215.852H957.264C957.623 215.852 957.928 215.953 958.178 216.156C958.444 216.344 958.577 216.617 958.577 216.977V218.758C958.577 219.148 958.467 219.461 958.248 219.695C958.03 219.93 957.741 220.047 957.381 220.047H953.209L951.873 228.086H955.905C956.264 228.086 956.577 228.188 956.842 228.391C957.108 228.578 957.241 228.852 957.241 229.211V230.992C957.241 231.383 957.131 231.695 956.913 231.93C956.694 232.164 956.405 232.281 956.045 232.281H951.17L950.092 238.773C949.967 239.539 949.498 239.922 948.686 239.922H946.459C946.022 239.922 945.702 239.781 945.498 239.5C945.295 239.219 945.225 238.898 945.288 238.539L946.319 232.281H939.569L938.491 238.773C938.366 239.539 937.897 239.922 937.084 239.922H934.858C934.42 239.922 934.1 239.781 933.897 239.5C933.694 239.219 933.623 238.898 933.686 238.539L934.717 232.281ZM947.022 228.086L948.358 220.047H941.608L940.272 228.086H947.022Z" fill="white"/>
</g>
<defs>
<filter id="filter0_d" x="681.055" y="696.188" width="377.189" height="48.2031" filterUnits="userSpaceOnUse" color-interpolation-filters="sRGB">
<feFlood flood-opacity="0" result="BackgroundImageFix"/>
<feColorMatrix in="SourceAlpha" type="matrix" values="0 0 0 0 0 0 0 0 0 0 0 0 0 0 0 0 0 0 127 0"/>
<feOffset dy="3"/>
<feGaussianBlur stdDeviation="5"/>
<feColorMatrix type="matrix" values="0 0 0 0 0 0 0 0 0 0 0 0 0 0 0 0 0 0 1 0"/>
<feBlend mode="normal" in2="BackgroundImageFix" result="effect1_dropShadow"/>
<feBlend mode="normal" in="SourceGraphic" in2="effect1_dropShadow" result="shape"/>
</filter>
<clipPath id="clip0">
<rect width="1111" height="777" fill="white"/>
</clipPath>
</defs>
</svg>
